<?xml version="1.0" encoding="UTF-8" standalone="no"?>
<!-- Created with Inkscape (http://www.inkscape.org/) -->

<svg
   width="51.001171mm"
   height="4.7314863mm"
   viewBox="0 0 51.001171 4.7314863"
   version="1.1"
   id="svg1"
   inkscape:export-filename="portfoliologo1.svg"
   inkscape:export-xdpi="96"
   inkscape:export-ydpi="96"
   inkscape:version="1.3.2 (091e20e, 2023-11-25, custom)"
   sodipodi:docname="portfoliolog.svg"
   xmlns:inkscape="http://www.inkscape.org/namespaces/inkscape"
   xmlns:sodipodi="http://sodipodi.sourceforge.net/DTD/sodipodi-0.dtd"
   xmlns="http://www.w3.org/2000/svg"
   xmlns:svg="http://www.w3.org/2000/svg">
  <sodipodi:namedview
     id="namedview1"
     pagecolor="#ffffff"
     bordercolor="#000000"
     borderopacity="0.25"
     inkscape:showpageshadow="2"
     inkscape:pageopacity="0.0"
     inkscape:pagecheckerboard="0"
     inkscape:deskcolor="#d1d1d1"
     inkscape:document-units="mm"
     inkscape:zoom="1.8923042"
     inkscape:cx="221.6874"
     inkscape:cy="214.81746"
     inkscape:window-width="1920"
     inkscape:window-height="986"
     inkscape:window-x="-11"
     inkscape:window-y="-11"
     inkscape:window-maximized="1"
     inkscape:current-layer="layer1" />
  <defs
     id="defs1" />
  <g
     inkscape:label="Layer 1"
     inkscape:groupmode="layer"
     id="layer1"
     transform="translate(-50.794496,-52.337485)">
    <path
       d="m 59.83501,52.523534 v 4.303614 h 0.207739 v -4.303614 z m -1.339453,-0.114721 h 2.691308 c 0.163297,0 0.313159,-0.0041 0.449585,-0.0124 0.136426,-0.01033 0.312126,-0.02584 0.5271,-0.04651 l 0.07131,1.004589 h -0.03721 l -0.229443,-0.731738 c -0.188102,-0.03307 -0.384472,-0.04961 -0.589111,-0.04961 -0.1757,0 -0.335897,0.0093 -0.480591,0.02791 -0.144694,0.0186 -0.300757,0.04961 -0.468189,0.09302 -0.01653,0.192236 -0.02894,0.378271 -0.03721,0.558105 -0.0083,0.177767 -0.01447,0.343132 -0.0186,0.496094 -0.0041,0.150895 -0.0062,0.254248 -0.0062,0.310058 v 1.029395 c 0,0.270785 0.0093,0.574642 0.02791,0.911572 0.0186,0.334863 0.04134,0.602547 0.06821,0.803052 l 0.765844,0.114722 v 0.03101 h -2.340942 l -8.094832,0.117292 8.848274,-0.263024 c 0.06408,-0.456819 0.09612,-1.009757 0.09612,-1.658813 v -1.122413 c 0,-0.23151 -0.0052,-0.45992 -0.0155,-0.685229 -0.01033,-0.225309 -0.0279,-0.43925 -0.05271,-0.641821 -0.119889,-0.03307 -0.259416,-0.05891 -0.418579,-0.07751 -0.159164,-0.02067 -0.310059,-0.03308 -0.452686,-0.03721 -0.225309,0 -0.447518,0.0186 -0.666626,0.05581 l -0.223242,0.737939 h -0.04341 l 0.06821,-1.016992 c 0.06201,0.0041 0.15193,0.01447 0.269751,0.03101 0.117822,0.01447 0.214974,0.0217 0.291455,0.0217 z m 4.815209,0.120923 v 4.297412 h 0.213941 v -4.297412 z m -0.942578,-0.08992 v -0.03101 h 3.302124 l 0.07752,0.964282 h -0.04961 l -0.223243,-0.756543 c -0.175699,-0.0124 -0.373103,-0.0186 -0.592211,-0.0186 -0.398943,0 -0.72037,0.0279 -0.964283,0.08371 -0.04134,0.334863 -0.06201,0.717269 -0.06201,1.147217 0,0.268717 0.0083,0.486792 0.0248,0.654224 0.326595,0.0186 0.534335,0.0279 0.623218,0.0279 0.233577,0 0.47439,-0.01344 0.722437,-0.04031 l 0.139526,-0.527099 h 0.05271 v 1.320849 h -0.05271 l -0.145728,-0.558105 c -0.179834,-0.02067 -0.378271,-0.03101 -0.595312,-0.03101 -0.272851,0 -0.520898,0.0124 -0.744141,0.03721 -0.02687,0.239779 -0.03514,0.47439 -0.0248,0.703833 0.0041,0.293522 0.0093,0.536401 0.0155,0.728638 0.0062,0.190169 0.01757,0.3545 0.03411,0.492993 0.252181,0.07648 0.58291,0.114722 0.992187,0.114722 0.235645,0 0.434082,-0.0093 0.595313,-0.02791 l 0.248047,-0.747241 h 0.04341 l -0.06821,0.970484 H 62.37749 v -0.03101 l 0.74104,-0.108521 c 0.01654,-0.08475 0.03101,-0.21394 0.04341,-0.387573 0.01447,-0.173633 0.02687,-0.367936 0.03721,-0.58291 0.01033,-0.217041 0.01757,-0.397909 0.0217,-0.542603 0.0041,-0.146761 0.0062,-0.274918 0.0062,-0.384472 v -0.781348 c 0,-0.09922 -0.0031,-0.239779 -0.0093,-0.42168 -0.0062,-0.183968 -0.0155,-0.374137 -0.0279,-0.570508 -0.0124,-0.19637 -0.02997,-0.39274 -0.05271,-0.589111 z m 4.433838,0.08992 2.241724,4.139282 0.10852,-0.21084 -2.133203,-3.928442 z m 4.517554,0.201538 -0.179834,0.362768 0.272851,3.733106 h 0.223242 l -0.303857,-4.095874 z m -5.2896,-0.322461 h 1.333252 c 0.111621,0.248047 0.206706,0.450618 0.285254,0.607715 0.07855,0.157096 0.173633,0.341064 0.285254,0.551904 l 0.871264,1.615405 c 0.214974,0.388607 0.394808,0.680062 0.539502,0.874365 0.119889,-0.194303 0.310059,-0.541569 0.570508,-1.041796 l 0.79375,-1.491382 c 0.227377,-0.432015 0.40101,-0.804086 0.520899,-1.116211 h 1.32705 v 0.03101 l -0.824755,0.114721 c -0.0124,0.181901 -0.0186,0.363802 -0.0186,0.545703 0,0.190169 0.01757,0.57981 0.05271,1.168921 0.03721,0.587045 0.08165,1.134815 0.133325,1.643311 0.05168,0.506429 0.09922,0.805118 0.142627,0.896069 l 0.570508,0.108521 v 0.03101 h -2.127002 v -0.03101 l 0.737939,-0.108521 c 0.01654,-0.157096 0.02481,-0.368969 0.02481,-0.63562 0,-0.146761 -0.0052,-0.337964 -0.0155,-0.573608 -0.01033,-0.237712 -0.02687,-0.50953 -0.04961,-0.815454 -0.02067,-0.307992 -0.04651,-0.592213 -0.07752,-0.852662 -0.03101,-0.260449 -0.05995,-0.436148 -0.08682,-0.527099 -0.09715,0.155029 -0.198438,0.332796 -0.303858,0.533301 l -1.206128,2.260327 c -0.190169,0.370003 -0.317293,0.634587 -0.381372,0.79375 h -0.04341 c -0.04341,-0.09509 -0.117821,-0.247013 -0.223242,-0.455786 -0.10542,-0.208773 -0.190169,-0.372071 -0.254248,-0.489893 L 67.595776,54.17305 c -0.171566,-0.318327 -0.313159,-0.572575 -0.42478,-0.762744 -0.01447,0.08268 -0.03617,0.270784 -0.06511,0.564307 -0.02894,0.293522 -0.05685,0.611849 -0.08372,0.95498 -0.02481,0.343131 -0.04444,0.63562 -0.05891,0.877466 -0.0124,0.241845 -0.0186,0.432015 -0.0186,0.570508 0,0.09715 0.0041,0.238745 0.0124,0.42478 l 0.589112,0.114722 v 0.03101 H 66.02378 v -0.03101 l 0.589111,-0.114722 c 0.02894,-0.08682 0.06821,-0.373104 0.117822,-0.858862 0.04961,-0.485759 0.09302,-0.984953 0.130225,-1.497583 0.03721,-0.514697 0.05581,-0.886768 0.05581,-1.116211 0,-0.08061 -0.0041,-0.205672 -0.0124,-0.375171 -0.05995,-0.124023 -0.175702,-0.257349 -0.347265,-0.399976 l -0.5271,-0.114721 z m 7.599536,0.120923 v 4.297412 h 0.213941 v -4.297412 z m -0.942578,-0.08992 v -0.03101 h 3.302124 l 0.07751,0.964282 h -0.04961 l -0.223243,-0.756543 c -0.175699,-0.0124 -0.373103,-0.0186 -0.592212,-0.0186 -0.398942,0 -0.720369,0.0279 -0.964282,0.08371 -0.04134,0.334863 -0.06201,0.717269 -0.06201,1.147217 0,0.268717 0.0083,0.486792 0.0248,0.654224 0.326595,0.0186 0.534335,0.0279 0.623218,0.0279 0.233577,0 0.474389,-0.01344 0.722436,-0.04031 l 0.139527,-0.527099 h 0.05271 v 1.320849 h -0.05271 l -0.145728,-0.558105 c -0.179834,-0.02067 -0.378271,-0.03101 -0.595312,-0.03101 -0.272852,0 -0.520899,0.0124 -0.744141,0.03721 -0.02687,0.239779 -0.03514,0.47439 -0.0248,0.703833 0.0041,0.293522 0.0093,0.536401 0.0155,0.728638 0.0062,0.190169 0.01757,0.3545 0.03411,0.492993 0.252181,0.07648 0.58291,0.114722 0.992187,0.114722 0.235645,0 0.434082,-0.0093 0.595313,-0.02791 l 0.248047,-0.747241 h 0.04341 l -0.06821,0.970484 H 72.69624 v -0.03101 l 0.74104,-0.108521 c 0.01654,-0.08475 0.03101,-0.21394 0.04341,-0.387573 0.01447,-0.173633 0.02687,-0.367936 0.03721,-0.58291 0.01033,-0.217041 0.01757,-0.397909 0.0217,-0.542603 0.0041,-0.146761 0.0062,-0.274918 0.0062,-0.384472 v -0.781348 c 0,-0.09922 -0.0031,-0.239779 -0.0093,-0.42168 -0.0062,-0.183968 -0.0155,-0.374137 -0.02791,-0.570508 -0.0124,-0.19637 -0.02997,-0.39274 -0.05271,-0.589111 z m 5.348511,-0.02481 h -0.09922 c -0.227376,0 -0.437182,0.04548 -0.629418,0.136426 -0.192237,0.09095 -0.344166,0.220142 -0.455787,0.387573 -0.111621,0.167431 -0.167431,0.356567 -0.167431,0.567407 0,0.262517 0.114722,0.508497 0.344165,0.73794 0.101285,0.09715 0.195336,0.1788 0.282153,0.244946 0.08888,0.06615 0.222209,0.160198 0.399976,0.282153 0.177767,0.119889 0.31936,0.219108 0.42478,0.297656 0.107487,0.07648 0.195337,0.149862 0.26355,0.220142 0.186035,0.186035 0.279052,0.393775 0.279052,0.623218 0,0.157096 -0.04341,0.309025 -0.130224,0.455786 -0.08475,0.144694 -0.208773,0.26355 -0.37207,0.356567 -0.161231,0.09095 -0.3514,0.13746 -0.570508,0.139527 v 0.03411 c 0.252181,0.0083 0.476456,-0.03618 0.672827,-0.133325 0.198437,-0.09715 0.349332,-0.22531 0.452685,-0.384473 0.10542,-0.159163 0.15813,-0.323494 0.15813,-0.492993 0,-0.146761 -0.02377,-0.280086 -0.07131,-0.399975 -0.04754,-0.119889 -0.134356,-0.242879 -0.260449,-0.36897 -0.07235,-0.07235 -0.202572,-0.1726 -0.390674,-0.300757 -0.188103,-0.130225 -0.378272,-0.260449 -0.570508,-0.390674 -0.192236,-0.132291 -0.332796,-0.240812 -0.42168,-0.325561 -0.217041,-0.214974 -0.325561,-0.451652 -0.325561,-0.710034 0,-0.227377 0.09819,-0.43925 0.294555,-0.635621 0.198438,-0.19637 0.496094,-0.299723 0.892969,-0.310058 z m -1.516186,3.447851 0.235644,0.762745 c 0.117823,0.05375 0.255282,0.09716 0.412378,0.130224 0.159163,0.03307 0.296623,0.04858 0.412378,0.04651 0.155029,0 0.296623,-0.02687 0.42478,-0.08062 0.130225,-0.05375 0.235645,-0.12196 0.31626,-0.204639 0.08268,-0.08268 0.145728,-0.1757 0.189136,-0.279053 0.04341,-0.10542 0.06511,-0.207739 0.06511,-0.306958 0,-0.204639 -0.06925,-0.377238 -0.207739,-0.517797 -0.138493,-0.14056 -0.371037,-0.320394 -0.697632,-0.539502 -0.324528,-0.219109 -0.560173,-0.402043 -0.706934,-0.548804 -0.12609,-0.130225 -0.220141,-0.260449 -0.282153,-0.390674 -0.06201,-0.132291 -0.09302,-0.279052 -0.09302,-0.440283 0,-0.177767 0.04858,-0.354501 0.145727,-0.5302 0.09715,-0.1757 0.247014,-0.321428 0.449585,-0.437183 0.202571,-0.117822 0.451652,-0.176733 0.747241,-0.176733 0.134359,0 0.276986,0.0072 0.427881,0.0217 0.150895,0.0124 0.255282,0.0186 0.313159,0.0186 0.04961,-0.0021 0.09612,-0.0031 0.139527,-0.0031 0.04341,-0.0021 0.07751,-0.0041 0.102319,-0.0062 0.02687,-0.0041 0.05478,-0.0083 0.08372,-0.0124 l 0.0186,1.060401 H 78.97492 L 78.77959,52.71267 c -0.287321,-0.126091 -0.537435,-0.189136 -0.750342,-0.189136 -0.177767,0 -0.337964,0.03411 -0.480591,0.10232 -0.14056,0.06615 -0.250114,0.158131 -0.328662,0.275952 -0.07855,0.115755 -0.117822,0.247013 -0.117822,0.393774 0,0.152963 0.05271,0.293523 0.15813,0.42168 0.10542,0.126091 0.24908,0.250114 0.430981,0.37207 0.183968,0.121957 0.380338,0.251148 0.589111,0.387574 0.21084,0.136425 0.379305,0.267683 0.505396,0.393774 0.24598,0.24598 0.36897,0.5302 0.36897,0.852661 0,0.181901 -0.04754,0.370004 -0.142627,0.564307 -0.09508,0.192236 -0.255282,0.355533 -0.480591,0.489892 -0.225309,0.134359 -0.516764,0.201538 -0.874365,0.201538 -0.126091,0 -0.280087,-0.0072 -0.461988,-0.0217 -0.179834,-0.01447 -0.312126,-0.0217 -0.396875,-0.0217 -0.03927,0 -0.07028,10e-4 -0.09302,0.0031 -0.02067,0.0021 -0.05375,0.0052 -0.09922,0.0093 -0.04547,0.0041 -0.07234,0.0062 -0.08061,0.0062 l -0.04961,-1.091407 z m 6.839891,-0.5333 v 1.212329 l 0.207739,-0.07751 v -1.134814 z m 1.116211,-0.08992 -0.496094,0.114721 c -0.02687,0.150895 -0.04858,0.344165 -0.06511,0.57981 -0.01654,0.235645 -0.02377,0.446484 -0.0217,0.632519 -0.237712,0.09302 -0.432015,0.164332 -0.58291,0.213941 -0.148828,0.04961 -0.327629,0.09405 -0.536402,0.133325 -0.206705,0.03927 -0.433048,0.05891 -0.679028,0.05891 -0.40721,0 -0.765844,-0.06408 -1.075903,-0.192236 -0.310059,-0.128157 -0.566374,-0.299723 -0.768946,-0.514697 -0.200504,-0.217041 -0.349332,-0.457854 -0.446484,-0.722437 -0.09715,-0.264583 -0.145727,-0.531234 -0.145727,-0.799951 0,-0.31626 0.05374,-0.61805 0.16123,-0.905371 0.107487,-0.289388 0.265617,-0.546737 0.47439,-0.772046 0.208773,-0.227376 0.464054,-0.405143 0.765844,-0.533301 0.303857,-0.130225 0.646989,-0.195337 1.029395,-0.195337 0.05995,0 0.106455,10e-4 0.139526,0.0031 0.03514,0.0021 0.07855,0.0041 0.130225,0.0062 0.05167,0.0021 0.12092,0.0052 0.207739,0.0093 0.252181,0.01654 0.490926,0.02481 0.716235,0.02481 0.208773,0 0.378272,-0.0062 0.508497,-0.0186 l 0.04341,1.035596 h -0.04341 l -0.198438,-0.691431 c -0.07855,-0.02067 -0.176733,-0.04134 -0.294556,-0.06201 -0.117822,-0.02274 -0.251147,-0.04238 -0.399975,-0.05891 -0.146761,-0.01654 -0.305925,-0.02481 -0.47749,-0.02481 -0.361735,0 -0.675928,0.05891 -0.942579,0.176734 -0.26665,0.115755 -0.481624,0.272852 -0.644921,0.471289 -0.161231,0.196371 -0.279053,0.414445 -0.353467,0.654224 -0.07441,0.239779 -0.111621,0.484725 -0.111621,0.734838 0,0.283187 0.05168,0.550871 0.155029,0.803052 0.10542,0.252181 0.253215,0.475424 0.443384,0.669727 0.192236,0.194303 0.415478,0.346232 0.669726,0.455786 0.254248,0.107487 0.523999,0.16123 0.809253,0.16123 0.07441,0 0.150895,-0.0041 0.229444,-0.0124 0.07855,-0.0083 0.159163,-0.0186 0.241845,-0.03101 0.08475,-0.01447 0.180868,-0.02997 0.288355,-0.04651 0.04341,-0.183968 0.06511,-0.378271 0.06511,-0.58291 0,-0.283187 -0.0217,-0.505395 -0.06511,-0.666626 l -0.799951,-0.10852 v -0.03721 h 2.071191 z M 82.463085,52.45221 V 52.4274 c -0.138493,-0.0124 -0.26355,-0.0186 -0.375171,-0.0186 -0.334863,0 -0.643888,0.05788 -0.927075,0.173633 -0.28112,0.115755 -0.525033,0.279052 -0.731739,0.489892 -0.204639,0.208773 -0.363802,0.457853 -0.47749,0.747241 -0.111621,0.287321 -0.167431,0.595313 -0.167431,0.923975 0,0.384473 0.09612,0.742074 0.288354,1.072803 0.192237,0.328662 0.468189,0.590145 0.827856,0.784448 0.359668,0.194303 0.783415,0.291455 1.271241,0.291455 0.09095,0 0.214973,-0.0093 0.37207,-0.0279 v -0.02481 c -0.454753,0.0021 -0.845426,-0.05994 -1.172021,-0.186035 -0.326595,-0.126091 -0.590145,-0.297656 -0.79065,-0.514697 -0.200505,-0.217041 -0.346232,-0.454753 -0.437183,-0.713135 -0.08888,-0.258382 -0.133325,-0.516764 -0.133325,-0.775147 0,-0.318327 0.05064,-0.611849 0.151929,-0.880566 0.103353,-0.268717 0.253214,-0.501261 0.449585,-0.697632 0.196371,-0.19637 0.44235,-0.348299 0.737939,-0.455786 0.297657,-0.109554 0.63252,-0.164331 1.00459,-0.164331 z m 3.010669,0.07751 v 4.297412 h 0.21394 V 52.52972 Z M 84.531176,52.4398 V 52.40879 H 87.8333 l 0.07751,0.964282 H 87.8612 l -0.223242,-0.756543 c -0.1757,-0.0124 -0.373104,-0.0186 -0.592212,-0.0186 -0.398942,0 -0.720369,0.0279 -0.964282,0.08371 -0.04134,0.334863 -0.06201,0.717269 -0.06201,1.147217 0,0.268717 0.0083,0.486792 0.02481,0.654224 0.326595,0.0186 0.534334,0.0279 0.623217,0.0279 0.233577,0 0.47439,-0.01344 0.722437,-0.04031 l 0.139526,-0.527099 h 0.05271 v 1.320849 h -0.05271 l -0.145727,-0.558105 c -0.179834,-0.02067 -0.378272,-0.03101 -0.595313,-0.03101 -0.272851,0 -0.520898,0.0124 -0.74414,0.03721 -0.02687,0.239779 -0.03514,0.47439 -0.02481,0.703833 0.0041,0.293522 0.0093,0.536401 0.0155,0.728638 0.0062,0.190169 0.01757,0.3545 0.03411,0.492993 0.252181,0.07648 0.582911,0.114722 0.992188,0.114722 0.235644,0 0.434081,-0.0093 0.595312,-0.02791 l 0.248047,-0.747241 h 0.04341 l -0.06821,0.970484 H 84.54048 v -0.03101 l 0.74104,-0.108521 c 0.01654,-0.08475 0.03101,-0.21394 0.04341,-0.387573 0.01447,-0.173633 0.02687,-0.367936 0.03721,-0.58291 0.01033,-0.217041 0.01757,-0.397909 0.0217,-0.542603 0.0041,-0.146761 0.0062,-0.274918 0.0062,-0.384472 v -0.781348 c 0,-0.09922 -0.0031,-0.239779 -0.0093,-0.42168 -0.0062,-0.183968 -0.0155,-0.374137 -0.02791,-0.570508 -0.0124,-0.19637 -0.02997,-0.39274 -0.05271,-0.589111 z m 3.655592,0 v -0.03101 h 1.565795 c 0.103353,0.14056 0.236679,0.310059 0.399976,0.508496 0.165365,0.198437 0.312126,0.36897 0.440283,0.511597 l 1.389063,1.544091 c 0.183968,0.200505 0.326595,0.355534 0.427881,0.465088 0.103353,0.109554 0.236678,0.242879 0.399975,0.399976 0.0124,-0.142627 0.02067,-0.275953 0.02481,-0.399976 0.0041,-0.124023 0.0062,-0.240812 0.0062,-0.350366 v -1.339453 c 0,-0.481625 -0.02377,-0.879533 -0.07131,-1.193726 l -0.753443,-0.114721 v -0.03101 h 1.844849 l 7.934823,-0.02142 -8.688266,0.173355 c -0.03927,0.289389 -0.05891,0.659392 -0.05891,1.11001 v 3.398242 h -0.03101 C 92.701225,56.66798 92.388066,56.292817 92.078007,55.943484 l -1.897559,-2.1146 c -0.281119,-0.299723 -0.520898,-0.538468 -0.719336,-0.716235 -0.02894,0.281119 -0.04341,0.543636 -0.04341,0.787549 v 1.96267 c 0,0.262517 0.02067,0.575676 0.06201,0.939478 l 0.787549,0.114722 v 0.03101 H 88.3821 v -0.03101 l 0.762745,-0.108521 c 0.02481,-0.148828 0.04238,-0.360701 0.05271,-0.63562 0.01033,-0.274919 0.0155,-0.519865 0.0155,-0.734839 v -1.519287 c 0,-0.179834 -0.0031,-0.357601 -0.0093,-0.533301 -0.0062,-0.177767 -0.01757,-0.353466 -0.03411,-0.527099 l -0.41237,-0.303858 z m 0.927075,0.08371 3.745508,4.164087 V 56.396142 L 89.374292,52.52351 Z"
       id="text1"
       style="font-size:6.35px;font-family:Castellar;-inkscape-font-specification:Castellar;fill:#ffffff;fill-opacity:0.95;stroke:#000000;stroke-width:0"
       aria-label="TEMESGEN"
       sodipodi:nodetypes="ccccccscccccsscccsscccccccsssccccccccsccccccccccccscscsccccccsccccsccccccccccsscscccccccccccccccscccccccccsccccccccsccscccccscccsccsccccccscscccccccccccccccscscsccccccsccccsccccccccccsscscccsssscccccsccccccssscccsccccccccccsscccsscsccccccccsccscccsscsscscsccccccccccscccsscsscccscscsccccccsccsscccssccscccccccscccscssccsscscscsccccccccccccscscsccccccsccccsccccccccccsscsccccccccccsssccccccscccccssccccccsssccccccccc" />
  </g>
</svg>
