<?xml version="1.0" encoding="UTF-8" standalone="no"?>
<!-- Created with Inkscape (http://www.inkscape.org/) -->

<svg
   width="30.320684mm"
   height="6.5253043mm"
   viewBox="0 0 30.320684 6.5253043"
   version="1.1"
   id="svg1"
   inkscape:export-filename="logo.svg"
   inkscape:export-xdpi="96"
   inkscape:export-ydpi="96"
   inkscape:version="1.3.2 (091e20e, 2023-11-25, custom)"
   sodipodi:docname="logo.svg"
   xmlns:inkscape="http://www.inkscape.org/namespaces/inkscape"
   xmlns:sodipodi="http://sodipodi.sourceforge.net/DTD/sodipodi-0.dtd"
   xmlns:xlink="http://www.w3.org/1999/xlink"
   xmlns="http://www.w3.org/2000/svg"
   xmlns:svg="http://www.w3.org/2000/svg">
  <sodipodi:namedview
     id="namedview1"
     pagecolor="#ffffff"
     bordercolor="#000000"
     borderopacity="0.25"
     inkscape:showpageshadow="2"
     inkscape:pageopacity="0.0"
     inkscape:pagecheckerboard="0"
     inkscape:deskcolor="#d1d1d1"
     inkscape:document-units="mm"
     inkscape:zoom="2.6761224"
     inkscape:cx="8.4076872"
     inkscape:cy="22.981012"
     inkscape:window-width="1920"
     inkscape:window-height="986"
     inkscape:window-x="-11"
     inkscape:window-y="-11"
     inkscape:window-maximized="1"
     inkscape:current-layer="layer1" />
  <defs
     id="defs1">
    <linearGradient
       id="linearGradient1"
       inkscape:collect="always">
      <stop
         style="stop-color:#051afb;stop-opacity:1;"
         offset="0"
         id="stop1" />
      <stop
         style="stop-color:#051afb;stop-opacity:0;"
         offset="1"
         id="stop2" />
    </linearGradient>
    <linearGradient
       id="linearGradient4"
       inkscape:collect="always">
      <stop
         style="stop-color:#000000;stop-opacity:1;"
         offset="0"
         id="stop4" />
      <stop
         style="stop-color:#000000;stop-opacity:0;"
         offset="1"
         id="stop5" />
    </linearGradient>
    <radialGradient
       inkscape:collect="always"
       xlink:href="#linearGradient4"
       id="radialGradient5"
       cx="43.733246"
       cy="59.123169"
       fx="43.733246"
       fy="59.123169"
       r="16.445629"
       gradientTransform="matrix(1,0,0,0.30059105,27.287617,96.717447)"
       gradientUnits="userSpaceOnUse" />
    <radialGradient
       inkscape:collect="always"
       xlink:href="#linearGradient1"
       id="radialGradient2"
       cx="42.44796"
       cy="58.628826"
       fx="42.44796"
       fy="58.628826"
       r="15.160343"
       gradientTransform="matrix(1,0,0,0.21520964,27.287617,101.37751)"
       gradientUnits="userSpaceOnUse" />
  </defs>
  <g
     inkscape:label="Layer 1"
     inkscape:groupmode="layer"
     id="layer1"
     transform="translate(-27.287617,-55.366175)">
    <rect
       style="fill:url(#radialGradient2);stroke:url(#radialGradient5);stroke-width:0"
       id="rect1"
       width="30.320686"
       height="6.5253038"
       x="27.287617"
       y="55.366173"
       ry="2.0535762" />
    <path
       d="m 28.527183,65.313206 0.03223,0.683241 h -0.08165 c -0.01575,-0.120319 -0.03724,-0.206262 -0.06446,-0.257827 -0.0444,-0.08308 -0.103843,-0.143953 -0.17833,-0.182627 -0.07305,-0.04011 -0.169736,-0.06016 -0.290055,-0.06016 h -0.410374 v 2.225903 c 0,0.179046 0.01934,0.290771 0.05801,0.335175 0.05443,0.06016 0.13822,0.09024 0.251381,0.09024 h 0.100982 v 0.0795 l -3.096481,0.007 1.861062,-0.08654 h 0.103131 c 0.123183,0 0.210558,-0.03724 0.262123,-0.111725 0.03151,-0.04583 0.04727,-0.150396 0.04727,-0.313689 v -2.225903 h -0.350214 c -0.136075,0 -0.23276,0.01003 -0.290055,0.03008 -0.07448,0.02721 -0.138224,0.07949 -0.191221,0.156845 -0.053,0.07735 -0.08451,0.181911 -0.09454,0.313689 h -0.08164 l 0.03438,-0.683241 z m 1.061386,0.158993 v 1.151626 h 0.640269 c 0.166155,0 0.277164,-0.02507 0.333026,-0.0752 0.07448,-0.06589 0.116022,-0.181909 0.124617,-0.348066 h 0.0795 v 1.014118 h -0.0795 c -0.02005,-0.141805 -0.04011,-0.23276 -0.06016,-0.272866 -0.02578,-0.05013 -0.06804,-0.08952 -0.126765,-0.118171 -0.05873,-0.02865 -0.148966,-0.04297 -0.270718,-0.04297 h -0.640269 v 0.960404 c 0,0.128913 0.0057,0.207694 0.01719,0.236341 0.01146,0.02721 0.03151,0.04942 0.06016,0.06661 0.02865,0.01575 0.08308,0.02363 0.16329,0.02363 h 0.494168 c 0.164723,0 0.284325,-0.01146 0.358808,-0.03438 0.07448,-0.02292 0.146102,-0.06804 0.214856,-0.135359 0.08881,-0.08881 0.179762,-0.222734 0.272866,-0.40178 h 0.08594 l -0.251381,0.730508 h -2.24524 v -0.0795 h 0.103131 c 0.06875,0 0.133926,-0.01647 0.195518,-0.04942 0.04583,-0.02292 0.07663,-0.0573 0.09239,-0.10313 0.01719,-0.04583 0.02578,-0.139654 0.02578,-0.281461 v -1.892877 c 0,-0.184775 -0.01862,-0.298649 -0.05586,-0.34162 -0.05157,-0.05729 -0.137509,-0.08594 -0.257826,-0.08594 h -0.103131 v -0.0795 h 2.24524 l 0.03223,0.638121 h -0.08379 c -0.03008,-0.153263 -0.06374,-0.258542 -0.100982,-0.315837 -0.03581,-0.05729 -0.08952,-0.100981 -0.161141,-0.131062 -0.05729,-0.02149 -0.158276,-0.03223 -0.302947,-0.03223 z m 3.568749,2.754447 -1.125842,-2.4515 v 1.94659 c 0,0.179046 0.01934,0.290771 0.05801,0.335175 0.053,0.06016 0.136794,0.09024 0.251381,0.09024 h 0.10313 v 0.0795 H 31.42988 v -0.0795 h 0.10313 c 0.123184,0 0.210559,-0.03724 0.262124,-0.111725 0.03151,-0.04583 0.04727,-0.150396 0.04727,-0.313689 v -1.903619 c 0,-0.128913 -0.01432,-0.222017 -0.04297,-0.279312 -0.02005,-0.04154 -0.05729,-0.07592 -0.111725,-0.103131 -0.053,-0.02865 -0.138942,-0.04297 -0.257826,-0.04297 v -0.0795 h 0.825044 l 1.057089,2.279617 1.039901,-2.279617 h 0.825045 v 0.0795 H 35.07598 c -0.124616,0 -0.212707,0.03724 -0.264272,0.111725 -0.03151,0.04583 -0.04727,0.150396 -0.04727,0.313689 v 1.903619 c 0,0.179046 0.02005,0.290771 0.06016,0.335175 0.053,0.06016 0.136794,0.09024 0.251381,0.09024 h 0.100982 v 0.0795 h -1.237568 v -0.0795 h 0.103131 c 0.124616,0 0.211991,-0.03724 0.262124,-0.111725 0.03151,-0.04583 0.04727,-0.150396 0.04727,-0.313689 v -1.94659 l -1.123694,2.4515 z m 3.031612,-2.754447 v 1.151626 h 0.640269 c 0.166155,0 0.277163,-0.02507 0.333026,-0.0752 0.07448,-0.06589 0.116022,-0.181909 0.124616,-0.348066 h 0.0795 v 1.014118 h -0.0795 c -0.02005,-0.141805 -0.04011,-0.23276 -0.06016,-0.272866 -0.02578,-0.05013 -0.06804,-0.08952 -0.126764,-0.118171 -0.05873,-0.02865 -0.148966,-0.04297 -0.270718,-0.04297 H 36.18893 v 0.960404 c 0,0.128913 0.0057,0.207694 0.01719,0.236341 0.01146,0.02721 0.03151,0.04942 0.06016,0.06661 0.02865,0.01575 0.08308,0.02363 0.16329,0.02363 h 0.494167 c 0.164723,0 0.284326,-0.01146 0.358809,-0.03438 0.07448,-0.02292 0.146102,-0.06804 0.214855,-0.135359 0.08881,-0.08881 0.179763,-0.222734 0.272867,-0.40178 h 0.08594 l -0.251381,0.730508 h -2.24524 v -0.0795 h 0.103131 c 0.06875,0 0.133927,-0.01647 0.195519,-0.04942 0.04583,-0.02292 0.07663,-0.0573 0.09239,-0.10313 0.01719,-0.04583 0.02578,-0.139654 0.02578,-0.281461 v -1.892877 c 0,-0.184775 -0.01862,-0.298649 -0.05586,-0.34162 -0.05157,-0.05729 -0.137509,-0.08594 -0.257827,-0.08594 h -0.103131 v -0.0795 h 2.24524 l 0.03223,0.638121 h -0.08379 c -0.03008,-0.153263 -0.06374,-0.258542 -0.100982,-0.315837 -0.03581,-0.05729 -0.08952,-0.100981 -0.161142,-0.131062 -0.05729,-0.02149 -0.158275,-0.03223 -0.302946,-0.03223 z m 3.785752,-0.225598 v 1.007672 h -0.0795 c -0.02578,-0.19337 -0.07233,-0.34735 -0.139656,-0.461939 -0.06589,-0.114589 -0.160423,-0.205545 -0.283609,-0.272866 -0.123184,-0.06732 -0.250665,-0.100983 -0.382443,-0.100983 -0.148967,0 -0.272151,0.04584 -0.369552,0.137508 -0.0974,0.09024 -0.146101,0.19337 -0.146101,0.309392 0,0.08881 0.0308,0.169736 0.09239,0.242787 0.08881,0.107427 0.300081,0.250664 0.633823,0.42971 0.272151,0.146102 0.457643,0.258543 0.556476,0.337324 0.100266,0.07735 0.176898,0.169019 0.229895,0.275015 0.05443,0.105995 0.08165,0.217004 0.08165,0.333026 0,0.220585 -0.08594,0.41109 -0.257826,0.571515 -0.170452,0.158993 -0.390321,0.23849 -0.659607,0.23849 -0.08451,0 -0.164006,-0.0064 -0.238489,-0.01934 -0.0444,-0.0072 -0.136788,-0.03294 -0.277164,-0.07735 -0.138939,-0.04583 -0.22703,-0.06875 -0.264272,-0.06875 -0.03581,0 -0.06445,0.01074 -0.08594,0.03223 -0.02005,0.02149 -0.03509,0.06589 -0.04512,0.133211 h -0.0795 v -0.999078 h 0.0795 c 0.03724,0.209126 0.08737,0.36597 0.150399,0.470533 0.06303,0.103131 0.158995,0.189073 0.287906,0.257827 0.130346,0.06875 0.272867,0.10313 0.427563,0.10313 0.179046,0 0.320134,-0.04727 0.423265,-0.141804 0.104563,-0.09454 0.156845,-0.206262 0.156845,-0.335175 0,-0.07162 -0.02005,-0.143953 -0.06016,-0.217004 -0.03867,-0.07305 -0.09955,-0.141088 -0.182627,-0.204112 -0.05586,-0.04297 -0.208407,-0.133929 -0.457642,-0.272867 -0.249233,-0.140372 -0.426847,-0.252097 -0.532842,-0.335174 -0.104563,-0.08308 -0.184059,-0.17475 -0.238489,-0.275015 -0.05443,-0.100266 -0.08165,-0.210559 -0.08165,-0.330878 0,-0.209126 0.08021,-0.388888 0.240638,-0.539287 0.160425,-0.151831 0.364538,-0.227747 0.612338,-0.227747 0.154696,0 0.318702,0.03796 0.492019,0.113874 0.08021,0.03581 0.136791,0.05371 0.169736,0.05371 0.03724,0 0.06732,-0.01074 0.09024,-0.03223 0.02435,-0.02292 0.04368,-0.06804 0.05801,-0.135359 z m 3.130444,0 0.0752,0.919582 h -0.0752 c -0.07592,-0.229179 -0.174033,-0.40178 -0.294352,-0.517802 -0.173317,-0.167587 -0.39605,-0.251381 -0.6682,-0.251381 -0.370984,0 -0.653161,0.146818 -0.846531,0.440454 -0.161857,0.2478 -0.242786,0.542868 -0.242786,0.885204 0,0.27788 0.05371,0.53141 0.161141,0.760589 0.107428,0.229179 0.2478,0.397482 0.421117,0.50491 0.174749,0.105995 0.353796,0.158993 0.537139,0.158993 0.107427,0 0.211274,-0.01361 0.31154,-0.04082 0.100266,-0.02721 0.196951,-0.06732 0.290055,-0.120319 v -0.842233 c 0,-0.146102 -0.01146,-0.241355 -0.03438,-0.285758 -0.02149,-0.04583 -0.05586,-0.08021 -0.103131,-0.103131 -0.04583,-0.02435 -0.127478,-0.03652 -0.244935,-0.03652 v -0.08164 h 1.127991 v 0.08164 h -0.05371 c -0.111725,0 -0.188357,0.03724 -0.229896,0.111725 -0.02865,0.053 -0.04297,0.157563 -0.04297,0.313689 v 0.89165 c -0.164723,0.08881 -0.327297,0.15398 -0.487722,0.195519 -0.160425,0.04154 -0.338755,0.06231 -0.53499,0.06231 -0.562921,0 -0.990484,-0.180479 -1.282687,-0.541436 -0.219153,-0.270718 -0.328729,-0.582975 -0.328729,-0.93677 0,-0.256394 0.06159,-0.502045 0.184776,-0.736954 0.146101,-0.279312 0.346633,-0.494168 0.601595,-0.644567 0.213423,-0.124616 0.46552,-0.186924 0.756291,-0.186924 0.105995,0 0.201964,0.0086 0.287907,0.02578 0.08738,0.01719 0.210558,0.05514 0.369551,0.113873 0.08021,0.03008 0.133927,0.04512 0.161142,0.04512 0.02721,0 0.05013,-0.01218 0.06875,-0.03653 0.02005,-0.02578 0.03223,-0.0752 0.03653,-0.14825 z m 1.396561,0.225598 v 1.151626 h 0.640269 c 0.166155,0 0.277164,-0.02507 0.333026,-0.0752 0.07448,-0.06589 0.116022,-0.181909 0.124616,-0.348066 h 0.0795 v 1.014118 h -0.0795 c -0.02005,-0.141805 -0.04011,-0.23276 -0.06016,-0.272866 -0.02578,-0.05013 -0.06803,-0.08952 -0.126765,-0.118171 -0.05873,-0.02865 -0.148966,-0.04297 -0.270718,-0.04297 h -0.640269 v 0.960404 c 0,0.128913 0.0057,0.207694 0.01719,0.236341 0.01146,0.02721 0.03151,0.04942 0.06016,0.06661 0.02865,0.01575 0.08308,0.02363 0.16329,0.02363 h 0.494168 c 0.164723,0 0.284325,-0.01146 0.358808,-0.03438 0.07448,-0.02292 0.146102,-0.06804 0.214856,-0.135359 0.08881,-0.08881 0.179762,-0.222734 0.272866,-0.40178 h 0.08594 l -0.25138,0.730508 h -2.24524 v -0.0795 h 0.103131 c 0.06875,0 0.133926,-0.01647 0.195518,-0.04942 0.04583,-0.02292 0.07663,-0.0573 0.09239,-0.10313 0.01719,-0.04583 0.02578,-0.139654 0.02578,-0.281461 v -1.892877 c 0,-0.184775 -0.01862,-0.298649 -0.05586,-0.34162 -0.05157,-0.05729 -0.137509,-0.08594 -0.257826,-0.08594 h -0.103131 v -0.0795 h 2.24524 l 0.03223,0.638121 h -0.08379 c -0.03008,-0.153263 -0.06374,-0.258542 -0.100982,-0.315837 -0.03581,-0.05729 -0.08952,-0.100981 -0.161141,-0.131062 -0.05729,-0.02149 -0.158276,-0.03223 -0.302947,-0.03223 z m 1.710249,-0.158993 h 0.790668 l 1.781152,2.18508 v -1.680169 c 0,-0.179047 -0.02005,-0.290772 -0.06016,-0.335175 -0.053,-0.06016 -0.136793,-0.09024 -0.25138,-0.09024 h -0.100982 v -0.0795 l 2.21227,0.0111 -1.198153,0.0684 h -0.10313 c -0.123184,0 -0.210559,0.03724 -0.262124,0.111725 -0.03151,0.04583 -0.04727,0.150396 -0.04727,0.313689 v 2.455798 h -0.07735 l -1.920808,-2.346222 v 1.794043 c 0,0.179046 0.01934,0.290771 0.05801,0.335175 0.05443,0.06016 0.13822,0.09024 0.251381,0.09024 h 0.10313 v 0.0795 h -1.014117 v -0.0795 h 0.100982 c 0.124616,0 0.212707,-0.03724 0.264272,-0.111725 0.03151,-0.04583 0.04727,-0.150396 0.04727,-0.313689 v -2.026087 c -0.08451,-0.09883 -0.148967,-0.164006 -0.19337,-0.195518 -0.04297,-0.03151 -0.106714,-0.06088 -0.191221,-0.08809 -0.04154,-0.01289 -0.104564,-0.01934 -0.189073,-0.01934 z"
       id="text1"
       style="font-size:4.40024px;font-family:'Times New Roman';-inkscape-font-specification:'Times New Roman, ';fill:#ffffff;stroke:#fd00fd;stroke-width:0;fill-opacity:1"
       transform="scale(1.1388583,0.87807235)"
       aria-label="TEMESGEN"
       sodipodi:nodetypes="cccccscscsccccscscsccccccccsccccccsscsccsssccccccsccsscscccccccccccscsccccscsscccccccccscsscsccccscscccccsccccccsscsccsssccccccsccsscscccccccccccccsscsccccscsccscccccccscsccccsscscscccccccscsscsscsccccccscscssssccsccscccccsccccccsscsccsssccccccsccsscsccccccccccccscsccccscscccscsccccscsccccc" />
  </g>
</svg>
